<?xml version="1.0" encoding="UTF-8"?>
<svg version="1.1" xmlns="http://www.w3.org/2000/svg" width="1063" height="519">
<path d="M0 0 C6.87284831 5.70015929 12.03979873 12.45803952 13.03173828 21.54394531 C13.80392741 32.67411961 13.05842115 42.13304296 6.18359375 51.3125 C1.30970984 56.51869418 -5.84887768 60.07839884 -12.99609375 60.5703125 C-22.43416118 60.26802564 -30.6597959 58.31067234 -37.94140625 52.1875 C-43.56944217 45.46512377 -45.33544388 39.83485824 -45.37890625 31.125 C-45.39308594 29.83851562 -45.40726563 28.55203125 -45.421875 27.2265625 C-45.19854766 23.61547289 -44.50433657 20.85238333 -43.19140625 17.5 C-56.64960973 23.75962953 -62.12145624 35.69591092 -68.19140625 48.5 C-67.85109375 48.94988281 -67.51078125 49.39976563 -67.16015625 49.86328125 C-66.11391684 51.25177451 -65.07279187 52.64412782 -64.03515625 54.0390625 C-62.78095054 55.71310826 -61.50934581 57.37422826 -60.22265625 59.0234375 C-45.19960032 78.72675316 -39.85065674 103.53544758 -42.65625 127.953125 C-46.13421576 153.69284294 -58.88749018 174.25686714 -79.19140625 190.5 C-97.40486742 203.69685027 -117.864232 211.70504078 -140.19140625 214.5 C-140.98417969 214.61085938 -141.77695313 214.72171875 -142.59375 214.8359375 C-163.02709719 217.22467003 -184.29917662 215.77595647 -204.23144531 210.82128906 C-212.26604042 208.8489917 -216.83496061 209.31001834 -224.00390625 213.0625 C-224.70950684 213.42601562 -225.41510742 213.78953125 -226.14208984 214.1640625 C-235.98608368 219.36107557 -244.76843678 225.91289208 -249.19140625 236.5 C-249.86580777 241.25217817 -249.69192243 245.31696176 -247.81640625 249.75 C-237.73382265 260.31270663 -222.69341003 262.77981445 -208.81640625 264.6875 C-207.71296875 264.85185547 -206.60953125 265.01621094 -205.47265625 265.18554688 C-190.10667492 267.38705348 -174.78132921 267.66406413 -159.29025269 267.88760376 C-60.37833427 269.38937265 -60.37833427 269.38937265 -32.06640625 298.5625 C-15.75083035 317.8356803 -15.14393952 344.54016834 -16.19140625 368.5 C-16.61489175 373.34451051 -17.70476348 377.87113501 -19.19140625 382.5 C-19.48144531 383.43730957 -19.48144531 383.43730957 -19.77734375 384.39355469 C-26.19654357 404.73092695 -39.14609214 421.79760097 -56.19140625 434.5 C-57.30322266 435.38558594 -57.30322266 435.38558594 -58.4375 436.2890625 C-82.47271734 454.53416683 -116.68685777 461.57097634 -146.3125 461.703125 C-147.36176163 461.71018463 -148.41102325 461.71724426 -149.49208069 461.72451782 C-193.7453859 461.95458769 -193.7453859 461.95458769 -212.19140625 458.5 C-213.85018799 458.19400879 -213.85018799 458.19400879 -215.54248047 457.88183594 C-242.45717901 452.75202656 -271.1260281 445.00123674 -288.47265625 422.109375 C-297.17645351 408.89542825 -299.18677372 393.90243943 -296.609375 378.48828125 C-293.26102386 363.85644543 -284.7835082 351.26410443 -272.16381836 343.12231445 C-261.10384594 336.2612578 -248.38131294 330.24634795 -235.19140625 330.5 C-235.19140625 329.84 -235.19140625 329.18 -235.19140625 328.5 C-236.01511719 328.40589844 -236.83882812 328.31179688 -237.6875 328.21484375 C-253.0281943 325.08513689 -268.29259237 314.50563173 -277.54296875 302.07421875 C-286.72078746 287.74203266 -288.70596654 270.6008837 -285.12890625 254.0625 C-278.50721245 232.19551117 -261.42201346 217.41629409 -242.19140625 206.5 C-238.57910615 204.68539023 -234.93639161 203.02092263 -231.19140625 201.5 C-232.60679687 200.71689453 -232.60679687 200.71689453 -234.05078125 199.91796875 C-243.20864495 194.71984112 -250.79624701 188.98254665 -258.19140625 181.5 C-258.93003906 180.77167969 -259.66867187 180.04335937 -260.4296875 179.29296875 C-276.56140253 162.40948448 -283.10131962 138.51653012 -283.50390625 115.6875 C-282.80461581 88.47344716 -272.52123464 64.62537006 -252.7734375 45.7421875 C-221.21944593 18.34129316 -183.97063027 11.5401807 -143.19140625 13.5 C-121.37502173 15.28380666 -98.08784535 23.26972904 -81.19140625 37.5 C-80.83949219 36.96632812 -80.48757812 36.43265625 -80.125 35.8828125 C-78.49001173 33.41538894 -76.84171217 30.95720329 -75.19140625 28.5 C-74.37929688 27.27603516 -74.37929688 27.27603516 -73.55078125 26.02734375 C-63.5063552 11.21885582 -51.13127092 -1.72745637 -33.12890625 -5.8125 C-21.7849022 -7.67041562 -9.67871091 -6.7610122 0 0 Z M-188.19140625 37.5 C-188.7740625 38.02851562 -189.35671875 38.55703125 -189.95703125 39.1015625 C-209.10126299 58.67697063 -210.54931462 91.36839625 -210.42602539 117.08300781 C-210.07649053 140.74995919 -207.94916351 166.98167589 -193.19140625 186.5 C-192.44890625 187.551875 -191.70640625 188.60375 -190.94140625 189.6875 C-183.46430114 197.33453932 -173.41083491 201.413328 -162.75390625 201.875 C-151.98607041 201.41352132 -141.6120348 198.01589443 -133.96875 190.23828125 C-111.55198652 163.54766753 -113.17197832 121.52571083 -115.94140625 88.875 C-117.80646328 70.07687225 -120.95318467 49.20901335 -135.19140625 35.5 C-151.08895976 23.52068181 -173.37187932 24.01043061 -188.19140625 37.5 Z M-228.19140625 340.5 C-228.80242187 341.10199219 -229.4134375 341.70398438 -230.04296875 342.32421875 C-241.2145797 354.06179237 -244.68842932 369.13996266 -244.54516602 384.89892578 C-244.07628211 400.56732383 -238.35567892 412.61116168 -227.19140625 423.5 C-202.21711123 446.68385843 -162.05440596 446.73727719 -130.17474365 445.59112549 C-123.01832836 445.26232019 -116.13782479 444.20860857 -109.19140625 442.5 C-108.48790039 442.33902832 -107.78439453 442.17805664 -107.05957031 442.01220703 C-91.60402969 438.39665247 -76.83612864 431.44031574 -65.19140625 420.5 C-64.56105469 419.91089844 -63.93070313 419.32179688 -63.28125 418.71484375 C-53.97680092 409.08320525 -49.36807819 396.31382817 -48.87890625 383.125 C-49.14307153 372.10775402 -52.25320089 361.42662991 -60.1953125 353.5 C-71.97682074 343.72071588 -86.75243764 340.5744237 -101.6171875 338.87890625 C-102.71509109 338.75359024 -103.81299469 338.62827423 -104.94416809 338.49916077 C-120.22617166 336.90935059 -135.58984133 336.77098666 -150.93963623 336.48345947 C-158.18405662 336.34696383 -165.42808393 336.19380575 -172.671875 336.02734375 C-173.44183681 336.01006603 -174.21179863 335.99278831 -175.00509262 335.97498703 C-186.31071035 335.7123896 -197.51732953 335.07163747 -208.77075195 333.90454102 C-218.15741592 332.97237114 -221.6759088 333.76560244 -228.19140625 340.5 Z " fill="#696969" transform="translate(297.19140625,56.5)"/>
<path d="M0 0 C0.68191406 0.62261719 1.36382813 1.24523437 2.06640625 1.88671875 C2.69675781 2.43714844 3.32710937 2.98757812 3.9765625 3.5546875 C15.39143074 14.11657658 20.53413343 27.90077337 21.16015625 43.20703125 C20.8639285 54.83397026 16.67988979 63.72434152 8.31640625 71.69921875 C-0.91469439 79.16044671 -10.49533282 79.82828291 -21.93359375 78.88671875 C-30.03961811 77.59615435 -36.46624841 74.11688006 -41.69140625 67.7421875 C-48.14781851 58.58780586 -49.00799673 48.82309694 -47.93359375 37.88671875 C-46.36713159 30.19510815 -42.92151447 24.00542517 -36.93359375 18.88671875 C-32.19556077 15.89060966 -27.41399308 13.73130237 -21.74609375 13.82421875 C-20.48796875 13.84484375 -19.22984375 13.86546875 -17.93359375 13.88671875 C-28.45179972 -0.04279727 -45.97304093 -6.20692823 -62.7578125 -8.67578125 C-82.59810687 -10.99337534 -102.5776249 -8.35592771 -118.765625 4.05859375 C-126.07603198 10.89618834 -131.02916562 19.82693916 -131.93359375 29.88671875 C-132.18975249 41.85083865 -128.7973601 50.82263272 -120.5546875 59.50390625 C-101.00615784 77.27529685 -75.24870455 89.35886845 -51.85717773 101.27490234 C-31.156407 111.82755755 -12.33872159 123.45561648 5.06640625 138.88671875 C5.71996094 139.45519531 6.37351562 140.02367187 7.046875 140.609375 C22.89725514 155.33027437 33.06089874 175.96161369 34.26953125 197.5078125 C34.53016019 218.72735177 29.44834411 240.14604316 14.49389648 255.99780273 C8.59258033 261.98328844 2.48364252 266.85839215 -4.93359375 270.88671875 C-5.83078125 271.39460938 -6.72796875 271.9025 -7.65234375 272.42578125 C-44.35415673 292.08746677 -92.9537196 293.67642354 -132.44873047 282.65039062 C-152.45419713 276.50211987 -171.51180885 264.4562183 -182.49609375 246.3046875 C-189.06748372 233.2596961 -190.84104439 217.40450831 -186.953125 203.33984375 C-183.29301689 193.05837501 -177.49774152 183.89956324 -167.62890625 178.6640625 C-158.81045556 174.63070554 -149.59267708 173.17311464 -140.00390625 175.640625 C-130.28669169 179.40641484 -123.02459095 184.95756056 -118.62109375 194.51171875 C-114.96024002 203.06915742 -114.28753826 213.43116128 -117.55859375 222.19921875 C-122.33045465 232.42226798 -128.62499258 237.62117355 -138.87109375 242.19921875 C-143.51260153 243.24118988 -148.19389758 243.56624107 -152.93359375 243.88671875 C-142.40211788 260.30254361 -127.57369365 267.59001776 -108.93359375 271.88671875 C-86.86122054 275.38880719 -61.55736808 273.83655926 -42.2890625 261.64453125 C-34.33941481 255.71195835 -28.83507862 247.67847727 -26.93359375 237.88671875 C-26.01039286 223.79015132 -28.61052338 212.83156498 -37.64453125 201.796875 C-55.42312859 182.8555424 -83.46849499 170.9404383 -105.90625 158.59765625 C-122.76328503 149.28119615 -138.1123974 139.36238519 -151.93359375 125.88671875 C-152.57296875 125.30921875 -153.21234375 124.73171875 -153.87109375 124.13671875 C-168.67487786 110.42951124 -177.88937827 90.78380452 -179.05981445 70.72338867 C-179.6142451 54.77866745 -178.01625298 40.3970378 -170.93359375 25.88671875 C-170.51464844 24.97535156 -170.09570312 24.06398437 -169.6640625 23.125 C-159.86356081 3.32629197 -140.23969498 -10.3085798 -119.84082031 -17.47265625 C-81.76400772 -30.26240999 -31.55063376 -27.17305005 0 0 Z " fill="#696969" transform="translate(1028.93359375,93.11328125)"/>
<path d="M0 0 C0.74233887 0.21430664 1.48467773 0.42861328 2.24951172 0.64941406 C18.30023035 5.44265192 31.21806131 13.08046202 43 25 C43.72832031 25.71800781 44.45664062 26.43601562 45.20703125 27.17578125 C69.18824948 52.29220508 75.53215166 90.70301928 77 124 C77.11085938 125.09054688 77.22171875 126.18109375 77.3359375 127.3046875 C77.63026775 131.37456441 77.76659391 134.63457068 75.73044586 138.26128387 C71.55546209 142.93296465 68.40130398 144.53942529 62.11560059 144.96203613 C59.33143965 145.01518268 56.55523479 144.96558872 53.77148438 144.90820312 C52.2333793 144.90594382 50.69526561 144.9072185 49.15716553 144.91174316 C44.99998271 144.91403047 40.84466167 144.86713402 36.68791008 144.8111515 C32.33716247 144.76100275 27.98636802 144.75643088 23.63537598 144.74694824 C15.40456172 144.72212338 7.17460165 144.65652974 -1.05583715 144.57615232 C-10.42936299 144.48660677 -19.80293049 144.4427156 -29.17677784 144.40258884 C-48.45166877 144.31905933 -67.72576561 144.17842509 -87 144 C-86.88772613 149.12469512 -86.76901291 154.24919053 -86.64485168 159.37361145 C-86.60363916 161.10943252 -86.56405328 162.84529313 -86.52626038 164.58119202 C-85.71975296 201.42146527 -83.16719095 243.41914429 -57 272 C-44.72358502 282.97948547 -31.01103557 287.40565711 -14.8125 287.3125 C-13.29293701 287.30512817 -13.29293701 287.30512817 -11.74267578 287.29760742 C11.08449137 286.94235622 30.69642199 277.85382413 47 262 C47.68578125 261.37609375 48.3715625 260.7521875 49.078125 260.109375 C54.25523753 255.25837979 58.09254122 249.81928356 62.01953125 243.953125 C63.61558852 241.57320528 65.25342772 239.269993 67 237 C71.30764815 238.56641751 75.06171464 240.68336156 79 243 C78.49121777 247.69307744 76.35373713 250.85294551 73.625 254.5625 C73.18236816 255.1723877 72.73973633 255.78227539 72.28369141 256.41064453 C67.62904948 262.70003978 62.42199952 268.37231006 57 274 C56.34644531 274.71671875 55.69289063 275.4334375 55.01953125 276.171875 C36.70206559 295.70008999 8.81789113 306.93374341 -17.60498047 308.16845703 C-55.79410139 309.29568933 -92.3290154 303.23981568 -121.41552734 276.52539062 C-152.07390405 247.01020762 -162.12954223 201.98780686 -163.22265625 160.921875 C-164.02663094 112.68965033 -153.3131185 63.53164812 -118.83203125 27.80859375 C-88.14895995 -2.62054869 -41.20296412 -12.06612321 0 0 Z M-64 23 C-85.60918286 50.0972293 -87.15970417 96.04707898 -87 129 C-67.39046433 129.2709675 -47.87927464 128.52240895 -28.29760742 127.60931396 C-24.3008056 127.42419262 -20.30371082 127.24562211 -16.30664062 127.06640625 C-8.53746941 126.71714122 -0.76863821 126.36094739 7 126 C7.1643835 122.82430062 7.32651999 119.64849019 7.48828125 116.47265625 C7.53440552 115.58211548 7.58052979 114.69157471 7.62805176 113.77404785 C9.13409978 84.06878399 10.3889054 42.77587647 -10.80859375 18.96875 C-18.47939272 11.68380611 -26.5866497 9.36565431 -37.03173828 9.53369141 C-48.62351173 10.06793764 -56.29289629 14.44828218 -64 23 Z " fill="#696969" transform="translate(493,74)"/>
<path d="M0 0 C6.29525134 7.26498188 5.64924731 14.98583171 5.48828125 24.09375 C5.47894217 25.6517218 5.47183123 27.20970839 5.46684265 28.7677002 C5.44785854 32.84510678 5.39883434 36.92160619 5.34332275 40.99865723 C5.28289111 45.90283464 5.26017293 50.80731738 5.23105621 55.71176147 C5.18276161 63.14180297 5.08689095 70.56985867 5 78 C26.12 78 47.24 78 69 78 C69 82.62 69 87.24 69 92 C63.88533741 92.26814509 58.77058747 92.53454611 53.65576172 92.79956055 C51.92819973 92.88928959 50.20065938 92.97943642 48.47314453 93.07006836 C38.09094059 93.61441942 27.70809253 94.10739994 17.3203125 94.53344727 C16.22468994 94.5787281 15.12906738 94.62400894 14.00024414 94.67066193 C11.33351151 94.78082104 8.66676363 94.89059449 6 95 C5.95320496 122.51268193 5.91797443 150.02535787 5.89637566 177.53807163 C5.88607882 190.31372473 5.87204901 203.08935305 5.84912109 215.86499023 C5.82913838 227.00487804 5.81627199 238.14474789 5.81182301 249.28465313 C5.80922389 255.17889723 5.80314816 261.07308999 5.78853989 266.96731758 C5.77487877 272.52485646 5.77079448 278.08232325 5.77378464 283.63987732 C5.77323827 285.67024058 5.76931199 287.70060647 5.76158905 289.73095512 C5.19954324 318.90604977 5.19954324 318.90604977 18 344 C27.42620588 350.84721658 36.66886672 353.18010056 48.125 351.375 C67.69774024 346.59124719 79.96237923 329.40478603 89.953125 313.07983398 C90.9751459 311.3904087 91.98855774 309.69577978 93 308 C96.55840951 308.79700436 99.13764709 310.13775544 102.25 312.0625 C103.14203125 312.61035156 104.0340625 313.15820312 104.953125 313.72265625 C105.96632813 314.35494141 105.96632813 314.35494141 107 315 C105.49331283 320.91231676 102.32554633 325.32578284 98.875 330.25 C98.28460937 331.09900879 97.69421875 331.94801758 97.0859375 332.82275391 C82.38572557 353.82132967 65.83853273 370.91613811 41 379 C39.97519531 379.33902344 38.95039062 379.67804688 37.89453125 380.02734375 C15.72880304 386.00245309 -10.50100689 383.06229114 -31 373 C-34.51881871 370.87212795 -37.78529179 368.56007672 -41 366 C-42.24910156 365.06414062 -42.24910156 365.06414062 -43.5234375 364.109375 C-60.89352754 349.31466109 -65.64421725 323.01997475 -67.52903748 301.44941711 C-68.20717796 292.35828134 -68.13193829 283.27531991 -68.11352539 274.16479492 C-68.11324281 272.19245912 -68.11340264 270.22012322 -68.1139679 268.24778748 C-68.1142531 262.93053571 -68.10840134 257.61330681 -68.10139394 252.29606032 C-68.09511409 246.72539497 -68.09455295 241.15472901 -68.09336853 235.58406067 C-68.09026882 225.05177991 -68.08207385 214.51950962 -68.07201904 203.98723346 C-68.06081555 191.98958005 -68.0553368 179.99192612 -68.05032361 167.99426877 C-68.03989003 143.32950673 -68.02231706 118.66475395 -68 94 C-69.91085136 94.00761353 -69.91085136 94.00761353 -71.86030579 94.01538086 C-73.56482923 94.0194877 -75.26935297 94.02346861 -76.97387695 94.02734375 C-77.80955452 94.03100952 -78.64523209 94.03467529 -79.50623322 94.03845215 C-87.4330836 94.05191581 -95.28217743 93.59299936 -103.1875 93 C-104.54618034 92.90303275 -105.90490454 92.80667809 -107.26367188 92.7109375 C-110.50954401 92.47991457 -113.75484299 92.2408599 -117 92 C-117 87.38 -117 82.76 -117 78 C-100.83 78 -84.66 78 -68 78 C-68 56.88 -68 35.76 -68 14 C-65.67048898 12.83524449 -64.05093073 12.77396093 -61.453125 12.59765625 C-42.78180276 11.04635272 -25.32611241 6.54002741 -7.35601807 1.44793701 C-2.20859663 0 -2.20859663 0 0 0 Z " fill="#696969" transform="translate(713,0)"/>
</svg>
